{"title":"Fast And Furious 6(2013) - BRRip - [Hindi - Tamil - Telugu] - 72","uid":8906247,"size":1155525818,"categoryP":"video","categoryS":"movies","magnet":"?xt=urn:btih:4988d518001c9639423a6771f19d9cb6f60a7f05&amp;dn=Fast+And+Furious+6%282013%29+-+BRRip+-+%5BHindi+-+Tamil+-+Telugu%5D+-+72&amp;tr=udp%3A%2F%2Ftracker.openbittorrent.com%3A80&amp;tr=udp%3A%2F%2Fopen.demonii.com%3A1337&amp;tr=udp%3A%2F%2Ftracker.coppersurfer.tk%3A6969&amp;tr=udp%3A%2F%2Fexodus.desync.com%3A6969","seeders":3,"leechers":0,"uploader":"Hacking_Guys","files":18,"time":1378912599,"description":"[CENTER][SIZE=&quot;5&quot;][COLOR=&quot;Red&quot;][b]Fast And Furious 6(2013) - BRRip - [Hindi - Tamil - Telugu] - 720P - x264 - DD[/b] [/COLOR][/SIZE]\n\n[IMG]http://www.impeccabledwaynejohnson.org/idjnet/wp-content/uploads/2013/07/Fast6_INT_ENG_BD_UV_Retail_Packshot-1.jpg[/IMG]\n\n[IMG]http://i.imgur.com/yElgnCZ.png[/IMG]\n\n[code]General\nFormat : Matroska\nFormat version : Version 4 / Version 2\nFile size : 1.04 GiB\nDuration : 2h 11mn\nOverall bit rate mode : Variable\nOverall bit rate : 1 131 Kbps\nVideo\nID : 1\nFormat : AVC\nFormat/Info : Advanced Video Codec\nFormat profile : &lt;a class=&quot;__cf_email__&quot; href=&quot;/cdn-cgi/l/email-protection&quot; data-cfemail=&quot;92dafbf5fad2dea6bca3&quot;&gt;[email&amp;#160;protected]&lt;/a&gt;&lt;script cf-hash='f9e31' type=&quot;text/javascript&quot;&gt;\n/* &lt;![CDATA[ */!function(){try{var t=&quot;currentScript&quot;in document?document.currentScript:function(){for(var t=document.getElementsByTagName(&quot;script&quot;),e=t.length;e--;)if(t[e].getAttribute(&quot;cf-hash&quot;))return t[e]}();if(t&amp;&amp;t.previousSibling){var e,r,n,i,c=t.previousSibling,a=c.getAttribute(&quot;data-cfemail&quot;);if(a){for(e=&quot;&quot;,r=parseInt(a.substr(0,2),16),n=2;a.length-n;n+=2)i=parseInt(a.substr(n,2),16)^r,e+=String.fromCharCode(i);e=document.createTextNode(e),c.parentNode.replaceChild(e,c)}}}catch(u){}}();/* ]]&gt; */&lt;/script&gt;\nFormat settings, CABAC : Yes\nFormat settings, ReFrames : 5 frames\nCodec ID : V_MPEG4/ISO/AVC\nDuration : 2h 11mn\nBit rate mode : Variable\nBit rate : 745 Kbps\nMaximum bit rate : 14.0 Mbps\nWidth : 1 280 pixels\nHeight : 544 pixels\nDisplay aspect ratio : 2.35:1\nFrame rate mode : Constant\nFrame rate : 23.976 fps\nColor space : YUV\nChroma subsampling : 4:2:0\nBit depth : 8 bits\nScan type : Progressive\nBits/(Pixel*Frame) : 0.045\nStream size : 679 MiB (64%)\nLanguage : English\nDefault : Yes\nForced : No\n\nAudio #1\nID : 2\nFormat : AC-3\nFormat/Info : Audio Coding 3\nMode extension : CM (complete main)\nFormat settings, Endianness : Big\nCodec ID : A_AC3\nDuration : 2h 11mn\nBit rate mode : Constant\nBit rate : 128 Kbps\nChannel(s) : 2 channels\nChannel positions : Front: L R\nSampling rate : 48.0 KHz\nBit depth : 16 bits\nCompression mode : Lossy\nDelay relative to video : 650ms\nStream size : 120 MiB (11%)\nLanguage : Hindi\nDefault : Yes\nForced : Yes\n\nAudio #2\nID : 3\nFormat : AC-3\nFormat/Info : Audio Coding 3\nMode extension : CM (complete main)\nFormat settings, Endianness : Big\nCodec ID : A_AC3\nDuration : 2h 11mn\nBit rate mode : Constant\nBit rate : 128 Kbps\nChannel(s) : 2 channels\nChannel positions : Front: L R\nSampling rate : 48.0 KHz\nBit depth : 16 bits\nCompression mode : Lossy\nDelay relative to video : 650ms\nStream size : 120 MiB (11%)\nLanguage : Tamil\nDefault : No\nForced : No\n\nAudio #3\nID : 4\nFormat : AC-3\nFormat/Info : Audio Coding 3\nMode extension : CM (complete main)\nFormat settings, Endianness : Big\nCodec ID : A_AC3\nDuration : 2h 11mn\nBit rate mode : Constant\nBit rate : 128 Kbps\nChannel(s) : 2 channels\nChannel positions : Front: L R\nSampling rate : 48.0 KHz\nBit depth : 16 bits\nCompression mode : Lossy\nDelay relative to video : 650ms\nStream size : 120 MiB (11%)\nLanguage : Telugu\nDefault : No\nForced : No[/code]\n\n[IMG]http://i.imgur.com/WNFEzjW.png[/IMG]\n\n[URL=&quot;http://someimage.com/AzIx1Fc&quot;][IMG]http://t1.someimage.com/AzIx1Fc.jpg[/IMG][/URL] [URL=&quot;http://someimage.com/hW7oShn&quot;][IMG]http://t1.someimage.com/hW7oShn.jpg[/IMG][/URL] [URL=&quot;http://someimage.com/KsjKc6l&quot;][IMG]http://t1.someimage.com/KsjKc6l.jpg[/IMG][/URL] [URL=&quot;http://someimage.com/17sTCuy&quot;][IMG]http://t1.someimage.com/17sTCuy.jpg[/IMG][/URL] [URL=&quot;http://someimage.com/VlvvDF5&quot;][IMG]http://t1.someimage.com/VlvvDF5.jpg[/IMG][/URL] [URL=&quot;http://someimage.com/GBhfqoK&quot;][IMG]http://t1.someimage.com/GBhfqoK.jpg[/IMG][/URL] \n\n[B]Please Seed Back After Download[/B]\n\n[B]High Speed Seeding Njoy!!!!!\n\nCredits: Jayp53\n[/SIZE][/B]\n[/CENTER]","torrent":{"xt":"urn:btih:4988d518001c9639423a6771f19d9cb6f60a7f05","amp;dn":"Fast+And+Furious+6%282013%29+-+BRRip+-+%5BHindi+-+Tamil+-+Telugu%5D+-+72","amp;tr":["udp%3A%2F%2Ftracker.openbittorrent.com%3A80","udp%3A%2F%2Fopen.demonii.com%3A1337","udp%3A%2F%2Ftracker.coppersurfer.tk%3A6969","udp%3A%2F%2Fexodus.desync.com%3A6969"],"infoHash":"4988d518001c9639423a6771f19d9cb6f60a7f05","infoHashBuffer":{"type":"Buffer","data":[73,136,213,24,0,28,150,57,66,58,103,113,241,157,156,182,246,10,127,5]},"announce":[],"urlList":[]}}